<?xml version="1.0" encoding="UTF-8" standalone="no"?>
<svg xmlns:dc="http://purl.org/dc/elements/1.1/" xmlns:cc="http://creativecommons.org/ns#" xmlns:rdf="http://www.w3.org/1999/02/22-rdf-syntax-ns#" xmlns:svg="http://www.w3.org/2000/svg" xmlns="http://www.w3.org/2000/svg" xmlns:sodipodi="http://sodipodi.sourceforge.net/DTD/sodipodi-0.dtd" xmlns:inkscape="http://www.inkscape.org/namespaces/inkscape" height="294.09" width="305.94058" version="1.1" id="Layer_1" x="0px" y="0px" viewBox="0 0 305.94059 294.08999" xml:space="preserve" sodipodi:docname="Bungie shield.svg" inkscape:version="1.0 (4035a4fb49, 2020-05-01)"><metadata id="metadata37"><rdf:RDF><cc:Work rdf:about=""><dc:format>image/svg+xml</dc:format><dc:type rdf:resource="http://purl.org/dc/dcmitype/StillImage"/><dc:title/></cc:Work></rdf:RDF></metadata><defs id="defs35"/><sodipodi:namedview inkscape:document-rotation="0" pagecolor="#ffffff" bordercolor="#666666" borderopacity="1" objecttolerance="10" gridtolerance="10" guidetolerance="10" inkscape:pageopacity="0" inkscape:pageshadow="2" inkscape:window-width="1280" inkscape:window-height="961" id="namedview33" showgrid="false" inkscape:pagecheckerboard="true" inkscape:zoom="1.082175" inkscape:cx="163.94646" inkscape:cy="147.05" inkscape:window-x="-8" inkscape:window-y="-8" inkscape:window-maximized="1" inkscape:current-layer="Layer_1"/>
<style type="text/css" id="style2">
	.st0{fill:#F1F1F1;}
</style>

<path shape-rendering="geometricPrecision" class="st0" d="m 304.20631,156.86 -14.03,-10.43 V 0 L 158.11631,6.38 26.056307,0.01 V 37.38 L 5.4963065,29.2 l -0.19,-0.08 -0.2,-0.05 c -0.26,-0.07 -0.66,-0.15 -1.08,-0.15 h -0.09 -0.1 c -1.08,0.05 -2.08,0.53 -2.8,1.33 -0.71999999,0.8 -1.08999999,1.83 -1.02999999,2.9 0.08,1.36 0.82,2.58 1.98999999,3.27 l 22.3400005,13.81 1.72,1.06 v 96.09 c 0.19,41.28 31.34,76.24 62.06,101.57 30.240003,24.79 60.840003,40.43 64.690003,42.36 l 2.89,1.47 1.54,0.77 1.08,0.54 5.1,-2.79 c 2.55,-1.27 33.81,-17.04 64.69,-42.36 27.95,-23.03 56.09,-54.07 61.12,-90.54 l 10.96,5.4 0.28,0.14 0.3,0.08 c 0.4,0.11 0.79,0.16 1.15,0.16 1.19,-0.03 2.2,-0.48 2.94,-1.28 0.74,-0.79 1.13,-1.82 1.08,-2.9 -0.05,-1.27 -0.69,-2.43 -1.73,-3.14 z M 30.696307,4.88 158.11631,11.02 h 0.12 l 127.31,-6.15 v 138.11 l -4.36,-3.24 -1.91,-1.42 0.05,-4.6 V 10.7 l -121.15,5.9 -121.140003,-5.9 v 31.04 l -6.34,-2.52 z M 233.66631,42.37 v -5.69 h 20.88 l -12.15,28.76 h -6.74 l 9.99,-23.07 z m -82.52,60.66 c 3.08,1.24 4.73,4.36 4.73,4.36 l 7.59,13.88 24.69,16.31 c -2.19,3.97 -2.98,7.11 -3.38,8.36 -0.18,0.6 -0.25,0.89 -0.25,0.91 l 3.54,18.68 c -0.18,0.06 -0.35,0.08 -0.53,0.14 -4.26,1.42 -8.15,3.63 -12.27,5.97 l -2.04,1.15 -0.16,0.09 c -0.73,0.41 -1.45,0.82 -2.19,1.21 l -0.07,0.04 -0.07,0.04 c -0.96,0.56 -1.96,1.02 -3.18,1.46 -1.83,0.66 -3.67,1.01 -5.33,1.01 -2.2,0 -3.96,-0.48 -5.12,-0.8 -0.37,-0.1 -0.69,-0.19 -0.94,-0.25 l -0.08,-0.02 -0.08,-0.02 c -2.98,-0.55 -7.45,-4.39 -11.04,-7.47 -2.41,-2.06 -4.68,-4.02 -6.87,-5.41 -0.89,-0.57 -1.99,-1.15 -3.45,-1.81 l -0.29,-0.14 c -0.08,-0.04 -0.17,-0.08 -0.25,-0.11 l 5.71,-20.03 c -0.02,-0.02 -0.04,-0.05 -0.05,-0.07 l -22.63,-36.89 c -0.57,-0.74 -0.48,-1.78 0.16,-2.41 l 15.44,-28.73 c 0.25,-0.39 0.63,-0.65 1.05,-0.76 0.14,-0.04 0.28,-0.06 0.43,-0.06 0.02,0 0.04,0 0.06,0 0.33,0 0.67,0.09 0.96,0.28 l 14.87,6.27 c 0.02,0.01 0.04,0.02 0.04,0.03 l 16.72,7.49 c 0.91,0.37 1.32,1.44 0.94,2.38 l -6.93,11.07 c -0.29,0.7 -0.95,1.13 -1.64,1.15 -0.01,0 -0.03,0 -0.04,0 -0.22,0 -0.45,-0.04 -0.66,-0.13 l -15.84,-6.35 -2.39,3.93 c -0.03,0.01 2.46,0.99 10.84,5.25 z m 81.9,87.83 c 0.36,0 0.75,-0.04 1.14,-0.08 0.4,-0.04 0.8,-0.08 1.18,-0.08 0.91,0 1.72,0.23 2.07,1.23 0.73,2.05 -1.77,4.4 -2.3,6.25 -0.22,0.76 -0.11,1.78 -0.38,2.57 -1.13,3.19 -3.67,5.96 -5.31,8.89 -0.39,-0.02 -0.93,-0.19 -1.28,-0.39 -1.71,-0.93 3.87,-7.43 4.32,-8.21 1.07,-1.82 -9.28,-1.82 -9.88,-2.12 -2.16,-1.06 -3.77,-3.83 -4.6,-5.99 -0.85,-2.22 -1.56,-6.31 1.32,-7.34 0.39,-0.14 0.79,-0.18 1.18,-0.18 0.28,0 0.56,0.02 0.84,0.04 0.27,0.02 0.56,0.04 0.83,0.04 0.4,0 0.8,-0.04 1.19,-0.18 1.05,-0.39 1.96,-1.61 2.64,-2.38 -3.04,-2.44 -5.88,-3.32 -8.68,-3.32 -4.82,0 -9.53,2.62 -14.95,4.51 -3.68,0.7 -7.09,1.25 -8.61,1.56 -6.48,1.32 -12.94,6.88 -18.06,8.58 0,0 -6.54,2.46 -13.29,2.46 -0.66,0 -1.32,-0.02 -1.97,-0.07 -7.39,-0.58 -12.21,-0.63 -23.29,-9.98 -5.76,-4.56 -7.24,-7.84 -22.24,-10.99 -6.63,-1.33 -12.68,-2.88 -12.32,-6.58 0.1,-2.33 4.05,-4.54 3.02,-6.88 -0.54,-1.23 -1.07,-4.19 -0.17,-6.12 -1.9,-3.6 -3.64,-4.39 -8.780003,-5.99 -2.76,-0.86 -5.23,-0.89 -5.55,-0.89 -0.02,0 -0.04,0 -0.04,0 l -0.15,0.03 c 0.2,1.03 0.25,2.11 0.07,3.14 -0.73,3.91 -2.03,8.12 -5.72,8.12 -0.28,0 -0.56,-0.02 -0.86,-0.07 -0.21,-0.57 2.11,-3.24 -1.6,-7.6 -2.23,-2.57 -6.75,-9.92 -1.86,-13.42 0.33,-0.23 0.75,-0.5 1.27,-0.75 0.06,-0.04 0.12,-0.07 0.18,-0.1 1.23,-0.59 2.96,-1.14 5.25,-1.14 2.63,0 5.99,0.73 10.16,2.92 1.07,0.92 8.280003,1.95 13.250003,2.8 0.92,0.15 1.77,0.31 2.49,0.46 5.41,1.07 9.54,6.09 5.74,9.86 -2.47,2.03 -6.42,4.82 -4.5,5.71 0.06,0.02 0.13,0.05 0.21,0.09 0.19,0.02 0.48,0.08 0.85,0.15 0.21,0.05 0.42,0.09 0.62,0.14 1.55,0.36 3.08,0.71 4.55,1.08 0.13,0.04 0.25,0.07 0.37,0.09 0.25,0.07 0.5,0.13 0.75,0.2 2.92,0.79 6.26,1.8 9.14,2.95 0.22,0.08 0.44,0.17 0.65,0.27 0.35,0.15 0.66,0.3 0.99,0.45 1.08,0.49 2.1,0.99 2.92,1.52 5.58,3.58 13.14,12.3 19.37,13.46 1.08,0.25 3.57,1.15 6.98,1.15 1.96,0 4.24,-0.35 6.72,-1.25 1.25,-0.45 2.52,-0.99 3.87,-1.78 0.83,-0.44 1.63,-0.89 2.44,-1.34 4.69,-2.64 9.04,-5.29 13.59,-6.81 2.07,-0.69 4.18,-1.16 6.39,-1.25 0.07,0 0.14,-0.01 0.21,-0.01 3.19,-0.36 6.26,-0.54 7.22,-0.85 4.77,-1.5 9.65,-3.23 14.63,-3.23 1.78,0 3.58,0.22 5.38,0.76 3.9,1.15 6.99,3.81 9.37,7.02 0.99,1.33 5.87,8.17 4.54,9.87 -1.48,1.92 -4.72,3.96 -5.12,6.52 -0.31,2.08 0.49,2.48 1.61,2.48 z m -53.55,37.92 c 0.61,0.02 0.38,0.84 0.81,0.65 0.41,-0.2 0.76,-0.26 1.01,0.42 0.32,0.89 -0.83,0.53 -0.53,0.91 0.39,0.51 -0.94,2.34 -1.77,2.74 -0.83,0.38 -0.8,-0.64 -1.41,-0.65 -0.63,-0.02 -0.43,0.39 -0.72,-0.13 -0.29,-0.51 -0.08,-0.92 0.24,-1.21 0.32,-0.3 -0.05,-0.83 -0.05,-0.83 l -1.52,-4.78 -12.73,10.34 12.8,11.36 c 0,0 2.09,4.38 1.05,4.33 -2.56,-0.09 -4.29,-0.46 -4.29,-0.46 l -14.15,-11.5 -14.15,11.5 c 0,0 -1.73,0.37 -4.29,0.46 -1.05,0.04 1.05,-4.33 1.05,-4.33 l 12.8,-11.36 -12.73,-10.34 -1.52,4.78 c 0,0 -0.37,0.53 -0.05,0.83 0.32,0.3 0.53,0.7 0.24,1.21 -0.29,0.52 -0.09,0.11 -0.72,0.13 -0.61,0.01 -0.58,1.03 -1.41,0.65 -0.83,-0.39 -2.16,-2.23 -1.77,-2.74 0.3,-0.38 -0.85,-0.01 -0.54,-0.91 0.25,-0.68 0.59,-0.62 1.01,-0.42 0.43,0.19 0.19,-0.62 0.81,-0.65 0.89,-0.02 1.26,-6.67 1.26,-6.67 l -7.86,-6.94 -1.16,-1.37 c 0,0 -1.23,0.24 -2.07,-0.55 -0.85,-0.79 -1.1,-3 -0.26,-4.01 0.79,-0.94 2.48,-1.12 3.94,0.29 0.83,0.79 0.67,1.68 0.67,1.68 l 1.42,1.2 8.31,6.32 c 0,0 6.6,-2.24 6.54,-2.85 -0.06,-0.61 0.78,-0.48 0.54,-0.87 -0.25,-0.38 -0.36,-0.73 0.31,-1.05 0.85,-0.42 0.62,0.76 0.97,0.42 0.46,-0.45 2.49,0.6 2.98,1.37 0.48,0.77 -0.55,0.86 -0.49,1.48 0.06,0.6 0.45,0.37 -0.03,0.71 -0.48,0.36 -0.92,0.18 -1.25,-0.1 -0.47,-0.37 -0.21,-0.56 -0.21,-0.56 l -5.18,3.47 12.83,11.39 12.83,-11.39 -5.18,-3.47 c 0,0 0.26,0.19 -0.21,0.56 -0.33,0.28 -0.77,0.45 -1.25,0.1 -0.48,-0.34 -0.09,-0.11 -0.03,-0.71 0.06,-0.62 -0.97,-0.71 -0.49,-1.48 0.5,-0.77 2.52,-1.82 2.98,-1.37 0.34,0.34 0.12,-0.85 0.97,-0.42 0.67,0.32 0.57,0.67 0.31,1.05 -0.24,0.39 0.6,0.26 0.54,0.87 -0.05,0.61 6.54,2.85 6.54,2.85 l 8.31,-6.32 1.42,-1.2 c 0,0 -0.17,-0.89 0.66,-1.68 1.46,-1.41 3.15,-1.23 3.94,-0.29 0.84,1.01 0.59,3.22 -0.26,4.01 -0.84,0.79 -2.07,0.55 -2.07,0.55 l -1.16,1.37 -7.86,6.94 c 0.03,-0.01 0.4,6.65 1.28,6.67 z m -16.62,-166.93 -8.77,14.56 -2.15,-0.92 -0.5,-0.22 -2.25,-0.95 -11.37,-4.86 9.84,-16.57 c 0.34,-0.56 0.92,-0.87 1.53,-0.88 0.02,0 0.04,0 0.06,0 0.3,0 0.61,0.08 0.89,0.24 l 12.07,7.14 c 0.86,0.5 1.15,1.61 0.65,2.46 z m 3.17,2.02 c 0.33,-0.54 0.9,-0.84 1.5,-0.86 0.02,0 0.04,0 0.06,0 0.32,0 0.64,0.08 0.93,0.26 l 11.03,6.53 c 0.86,0.51 1.12,1.63 0.6,2.47 l -0.52,0.84 c -0.03,0.05 -0.08,0.08 -0.11,0.14 l -4.21,6.78 -3.94,6.32 c -0.05,-0.17 -0.11,-0.34 -0.17,-0.5 -0.39,-0.97 -1.06,-1.79 -1.92,-2.36 -0.37,-0.3 -0.77,-0.57 -1.24,-0.76 l -10.68,-4.79 z m -0.41,37.88 5.7,-9.05 10.98,-17.72 c 0.34,-0.55 0.93,-0.85 1.55,-0.85 0.01,0 0.02,0 0.03,0 0.31,0 0.63,0.09 0.92,0.27 l 9.92,5.84 c 0.84,0.52 1.1,1.63 0.58,2.47 l -9.86,15.72 -1.3,2.11 -5.39,8.6 c -0.08,0.14 -0.14,0.28 -0.21,0.42 -0.35,0.49 -0.89,0.78 -1.46,0.78 0,0 -0.01,0 -0.02,0 -0.32,0 -0.65,-0.09 -0.95,-0.27 l -9.91,-5.85 c -0.84,-0.51 -1.11,-1.62 -0.58,-2.47 z m 15.9,9.13 15.41,-24.57 c 0.36,-0.54 0.95,-0.85 1.54,-0.85 0.01,0 0.01,0 0.02,0 0.33,0 0.66,0.08 0.95,0.26 l 7.86,4.69 c 0.86,0.52 1.12,1.63 0.6,2.47 l -15.43,24.57 c -0.34,0.54 -0.94,0.85 -1.54,0.85 -0.01,0 -0.02,0 -0.03,0 -0.31,0 -0.64,-0.08 -0.92,-0.26 l -7.88,-4.7 c -0.85,-0.5 -1.11,-1.61 -0.58,-2.46 z M 3.6563065,33.61 c -0.22,-0.13 -0.36,-0.35 -0.38,-0.61 -0.02,-0.41 0.3,-0.77 0.73,-0.79 0.01,0 0.01,0 0.02,0 0.1,0 0.27,0.04 0.27,0.04 l 32.7500005,13.02 55.04,21.88 -1.65,-30.65 44.480003,31.49 c 0,0 -0.51,-0.21 -1.27,-0.21 -0.36,0 -0.78,0.05 -1.22,0.18 -1.38,0.42 -1.7,1.31 -1.7,1.31 l -0.74,1.42 c -0.02,0.02 -0.04,0.03 -0.05,0.05 l -0.06,0.1 -0.05,0.1 -8.13,15.13 -11.32,-7.91 -4.78,18.44 -68.560003,-42.36 -6.34,-3.92 -4.64,-2.87 z M 225.15631,245.37 c -30.42,24.96 -61.44,40.62 -63.89,41.84 l -3.05,1.66 -0.43,-0.22 -1.44,-0.73 v -0.01 l -1.29,-0.65 c -2.69,-1.33 -33.64,-16.98 -63.990003,-41.89 -30.41,-24.98 -60.34,-59.22 -60.37,-97.99 V 54.17 l 4.62,2.85 1.72,1.07 v 3.73 85.6 c 0,73.92 113.790003,131.88 118.640003,134.31 l 2.61,1.33 2.42,-1.33 c 4.7,-2.37 112.44,-57.31 118.27,-128.37 l 4.79,2.36 1.04,0.52 c -4.12,35.1 -31.57,66.08 -59.65,89.13 z m 76.79,-84.44 c -0.01,0 -0.01,0 -0.02,0 -0.11,0 -0.28,-0.05 -0.28,-0.05 l -11.94,-5.88 -4.5,-2.22 -6.07,-2.99 -48.09,-23.69 -4.85,32.59 -59.29,-39.66 -8.12,-14.96 25.99,14.69 3.52,2.1 c 0.47,0.29 1.01,0.47 1.57,0.58 0.39,0.11 0.79,0.19 1.19,0.19 0.01,0 0.02,0 0.04,0 1.16,0 2.26,-0.47 3.1,-1.27 0.41,-0.34 0.78,-0.72 1.06,-1.18 l 1.89,-3.01 1.81,-2.67 13.69,11.3 4.35,-28.71 62.23,46.28 23.09,17.17 c 0.2,0.13 0.34,0.35 0.36,0.61 0.01,0.42 -0.32,0.77 -0.73,0.78 z" id="path30" style="fill:#000000"/>
</svg>