<svg version="1.1" id="Estrogen" xmlns="http://www.w3.org/2000/svg" xmlns:xlink="http://www.w3.org/1999/xlink" x="0px" y="0px"
         viewBox="0 0 556.37 303.36" style="enable-background:new 0 0 556.37 303.36;" xml:space="preserve">
<style type="text/css">
        .st0{fill:none;}
</style>
<g>
        <polygon points="32.85,271.82 17.96,271.82 17.96,260.06 14.17,260.06 14.17,288.69 17.96,288.69 17.96,275.2 32.85,275.2 
                32.85,288.69 36.63,288.69 36.63,260.06 32.85,260.06     "/>
        <path d="M62.65,261.45c-2.12-1.26-4.51-1.89-7.15-1.89c-4.04,0-7.33,1.34-9.88,4.04c-2.55,2.69-3.83,6.41-3.83,11.16
                c0,2.52,0.55,4.9,1.64,7.15c1.09,2.25,2.7,4.03,4.82,5.33c2.12,1.3,4.53,1.95,7.23,1.95c2.49,0,4.8-0.59,6.95-1.77
                c2.15-1.18,3.81-2.91,4.98-5.21c1.17-2.29,1.76-4.89,1.76-7.79c0-2.86-0.56-5.43-1.67-7.68C66.39,264.47,64.77,262.71,62.65,261.45
                z M62.5,282.93c-1.84,2.01-4.19,3.01-7.04,3.01c-2.8,0-5.13-0.99-6.98-2.98c-1.86-1.99-2.78-4.7-2.78-8.16
                c0-4.31,0.97-7.39,2.9-9.23c1.93-1.84,4.24-2.77,6.92-2.77c1.89,0,3.59,0.48,5.11,1.44s2.67,2.3,3.46,4.04
                c0.79,1.74,1.18,3.77,1.18,6.1C65.27,278.08,64.35,280.93,62.5,282.93z"/>
        <polygon points="262.41,214.22 247.52,214.22 247.52,202.46 243.73,202.46 243.73,231.1 247.52,231.1 247.52,217.6 262.41,217.6 
                262.41,231.1 266.2,231.1 266.2,202.46 262.41,202.46     "/>
        <polygon points="312.29,127.82 297.4,127.82 297.4,116.06 293.62,116.06 293.62,144.7 297.4,144.7 297.4,131.2 312.29,131.2 
                312.29,144.7 316.08,144.7 316.08,116.06 312.29,116.06   "/>
        <rect x="173.77" y="159.62" transform="matrix(0.4998 -0.8661 0.8661 0.4998 -70.4902 242.7992)" width="2.4" height="45.62"/>
        <rect x="114.5" y="193.83" width="2.4" height="45.64"/>
        <rect x="152.16" y="249.67" transform="matrix(0.8662 -0.4997 0.4997 0.8662 -101.9474 120.9965)" width="45.62" height="2.4"/>
        <polygon points="260.54,193.57 249.4,193.57 248.97,195.97 260.97,195.97         "/>
        <polygon points="258.36,181.33 251.59,181.33 251.16,183.73 258.79,183.73        "/>
        <polygon points="256.17,169.09 253.77,169.09 253.35,171.49 256.6,171.49         "/>
        <path d="M420.15,41.85c2.12,1.3,4.53,1.95,7.23,1.95c2.49,0,4.8-0.59,6.95-1.77s3.81-2.91,4.98-5.21s1.76-4.89,1.76-7.79
                c0-2.87-0.56-5.43-1.67-7.69s-2.73-4.02-4.85-5.28c-2.12-1.26-4.51-1.89-7.15-1.89c-4.04,0-7.33,1.34-9.88,4.03
                c-2.55,2.69-3.83,6.41-3.83,11.16c0,2.51,0.55,4.9,1.64,7.15S418.03,40.55,420.15,41.85z M420.5,20.2
                c1.93-1.84,4.24-2.76,6.92-2.76c1.89,0,3.59,0.48,5.11,1.44s2.67,2.3,3.46,4.04s1.18,3.77,1.18,6.1c0,3.69-0.92,6.53-2.77,8.54
                s-4.19,3.01-7.04,3.01c-2.8,0-5.13-0.99-6.98-2.98s-2.78-4.7-2.78-8.15C417.6,25.12,418.56,22.04,420.5,20.2z"/>
        <polygon points="464.75,26.44 449.87,26.44 449.87,14.68 446.08,14.68 446.08,43.31 449.87,43.31 449.87,29.82 464.75,29.82 
                464.75,43.31 468.54,43.31 468.54,14.68 464.75,14.68     "/>
        <path d="M426.42,51.04l-11.41-3.71l-6.53,35.4l-52.4,17.03l4.66-55.9h-12l4.62,55.42l-48.5-28l-51.08,29.49v57.59l-48.68,28.12
                l-49.88-28.8l-51.08,29.48v57.6l-31.34,18.1l1.2,2.06l31.35-18.08l49.88,28.8l49.88-28.8l49.88,28.8l51.08-29.48v-57.6l48.82-28.2
                l55.1,17.92l34.88-48.02L410.9,83.51L426.42,51.04z M155.21,272.87l-48.68-28.12v-56.2l48.68-28.12l48.68,28.12v56.2L155.21,272.87
                z M254.97,272.87l-48.68-28.12v-56.2l48.68-28.12l48.68,28.12v56.2L254.97,272.87z M306.35,185.61l4.51-34.64h-12l4.51,34.64
                l-47.19-27.26v-56.21l48.68-28.11l48.68,28.11v56.21L306.35,185.61z M441.89,130.25l-32.83,45.18l-53.12-17.26v-55.85l53.12-17.26
                L441.89,130.25z"/>
        <polygon points="362.17,214.22 347.28,214.22 347.28,202.46 343.49,202.46 343.49,231.1 347.28,231.1 347.28,217.6 362.17,217.6 
                362.17,231.1 365.96,231.1 365.96,202.46 362.17,202.46   "/>
        <polygon points="348.73,195.97 360.73,195.97 360.31,193.57 349.16,193.57        "/>
        <polygon points="350.92,183.73 358.55,183.73 358.12,181.33 351.35,181.33        "/>
        <polygon points="353.53,169.09 353.11,171.49 356.36,171.49 355.93,169.09        "/>
        <path d="M508.21,117.45c-2.12-1.26-4.51-1.89-7.15-1.89c-4.04,0-7.33,1.34-9.88,4.03c-2.55,2.69-3.83,6.41-3.83,11.16
                c0,2.51,0.55,4.9,1.64,7.15s2.7,4.03,4.82,5.33c2.12,1.3,4.53,1.95,7.23,1.95c2.49,0,4.8-0.59,6.95-1.77s3.81-2.91,4.98-5.21
                c1.17-2.29,1.76-4.89,1.76-7.79c0-2.87-0.56-5.43-1.67-7.69C511.95,120.47,510.33,118.71,508.21,117.45z M508.06,138.93
                c-1.84,2.01-4.19,3.01-7.04,3.01c-2.8,0-5.13-0.99-6.98-2.98s-2.78-4.7-2.78-8.15c0-4.31,0.96-7.39,2.9-9.23s4.24-2.76,6.92-2.76
                c1.89,0,3.59,0.48,5.11,1.44s2.67,2.3,3.46,4.04s1.18,3.77,1.18,6.1C510.83,134.08,509.9,136.93,508.06,138.93z"/>
        <polygon points="538.4,116.06 538.4,127.82 523.52,127.82 523.52,116.06 519.73,116.06 519.73,144.7 523.52,144.7 523.52,131.2 
                538.4,131.2 538.4,144.7 542.19,144.7 542.19,116.06      "/>
        <polygon points="478.41,135.83 480.81,136.25 480.81,124.25 478.41,124.67        "/>
        <polygon points="465.9,133.63 468.3,134.05 468.3,126.45 465.9,126.85    "/>
        <polygon points="453.38,131.45 455.78,131.87 455.78,128.63 453.38,129.05        "/>
</g>
</svg>